<svg xmlns="http://www.w3.org/2000/svg" viewBox="0 0 900 600" role="img" aria-label="Restaurante dominicano demo">
  <defs>
    <linearGradient id="g" x1="0" x2="1" y1="0" y2="1">
      <stop offset="0" stop-color="#0f3f88"/>
      <stop offset="0.55" stop-color="#1c63b7"/>
      <stop offset="1" stop-color="#c9282d"/>
    </linearGradient>
  </defs>
  <rect width="900" height="600" fill="#f7fbff"/>
  <rect y="230" width="900" height="370" fill="url(#g)"/>
  <circle cx="700" cy="130" r="70" fill="#ffd166"/>
  <path d="M0 250c130-110 280-100 410 0s270 90 490-30v380H0Z" fill="#0b2f67" opacity=".22"/>
  <rect x="115" y="250" width="670" height="260" rx="24" fill="#fff"/>
  <rect x="150" y="190" width="600" height="110" rx="16" fill="#c9282d"/>
  <text x="450" y="260" text-anchor="middle" font-family="Arial, sans-serif" font-size="54" font-weight="800" fill="#fff">Restaurante</text>
  <circle cx="450" cy="400" r="92" fill="#eef6ff"/>
  <circle cx="450" cy="400" r="60" fill="#fff"/>
  <path d="M386 392h128c-8 42-33 67-64 67s-56-25-64-67Z" fill="#c9282d"/>
  <path d="M395 376c35-34 74-34 110 0" fill="none" stroke="#0f3f88" stroke-width="18" stroke-linecap="round"/>
</svg>
